<svg width="10" height="7" viewBox="0 0 10 7" fill="none" xmlns="http://www.w3.org/2000/svg">
<path d="M1.02247 0.780666C1.13967 0.646759 1.29862 0.571533 1.46434 0.571533C1.63007 0.571533 1.78901 0.646759 1.90622 0.780666L4.99997 4.31638L8.09372 0.780666C8.2116 0.650554 8.36947 0.578557 8.53335 0.580185C8.69722 0.581812 8.85398 0.656933 8.96986 0.789367C9.08574 0.921802 9.15147 1.10095 9.15289 1.28824C9.15431 1.47552 9.09132 1.65595 8.97747 1.79067L5.44184 5.83138C5.32464 5.96529 5.1657 6.04051 4.99997 6.04051C4.83424 6.04051 4.6753 5.96529 4.55809 5.83138L1.02247 1.79067C0.9053 1.65672 0.839478 1.47507 0.839478 1.28567C0.839478 1.09626 0.9053 0.914615 1.02247 0.780666Z" fill="#232323"/>
</svg>
