<svg width="19" height="18" viewBox="0 0 19 18" fill="none" xmlns="http://www.w3.org/2000/svg">
<path d="M16.75 6.49996H11.4917L12.2834 2.69163L12.3084 2.42496C12.3084 2.08329 12.1667 1.76663 11.9417 1.54163L11.0584 0.666626L5.57504 6.15829C5.26671 6.45829 5.08337 6.87496 5.08337 7.33329V15.6666C5.08337 16.5833 5.83337 17.3333 6.75004 17.3333H14.25C14.9417 17.3333 15.5334 16.9166 15.7834 16.3166L18.3 10.4416C18.375 10.25 18.4167 10.05 18.4167 9.83329V8.16663C18.4167 7.24996 17.6667 6.49996 16.75 6.49996ZM16.75 9.83329L14.25 15.6666H6.75004V7.33329L10.3667 3.71663L9.44171 8.16663H16.75V9.83329ZM0.083374 7.33329H3.41671V17.3333H0.083374V7.33329Z" fill="black"/>
</svg>
